<svg xmlns="http://www.w3.org/2000/svg" width="512" height="512" viewBox="0 0 96 96" role="img"><title>priority_exfil</title>
<g transform="translate(0 0) scale(1)"><polyline fill="none" stroke="#dcd8c8" stroke-width="3.2" stroke-linecap="round" stroke-linejoin="round" points="12,21 70,21"/>
<polyline fill="none" stroke="#dcd8c8" stroke-width="3.2" stroke-linecap="round" stroke-linejoin="round" points="41,21 41,32"/>
<path fill="#dcd8c8" fill-rule="evenodd" d="M14,43 L25,32 L43,31 L55,34 L61,39 L76,38 L84,28 L88,28 L85,42 L65,45 L58,52 L25,52 L14,47 Z M25,36 L34,35 L33,43 L18,43 Z M38,35 L44,36 L49,39 L49,44 L38,44 Z"/>
<polyline fill="none" stroke="#dcd8c8" stroke-width="3.2" stroke-linecap="round" stroke-linejoin="round" points="27,52 25,57"/>
<polyline fill="none" stroke="#dcd8c8" stroke-width="3.2" stroke-linecap="round" stroke-linejoin="round" points="53,52 55,57"/>
<path fill="#dcd8c8" fill-rule="evenodd" d="M22.5,57.5 A2.5,2.5 0 1,0 27.5,57.5 A2.5,2.5 0 1,0 22.5,57.5 Z"/>
<path fill="#dcd8c8" fill-rule="evenodd" d="M52.5,57.5 A2.5,2.5 0 1,0 57.5,57.5 A2.5,2.5 0 1,0 52.5,57.5 Z"/></g>
<polyline fill="none" stroke="#dcd8c8" stroke-width="2.8" stroke-linecap="round" stroke-linejoin="round" points="48,54 48,63"/>
<polyline fill="none" stroke="#dcd8c8" stroke-width="2.8" stroke-linecap="round" stroke-linejoin="round" points="32,73 48,63 64,73"/>
<path fill="#dcd8c8" fill-rule="evenodd" d="M32,73 L64,73 L64,89 L32,89 Z M35,76 L61,76 L61,86 L35,86 Z"/>
<polyline fill="none" stroke="#dcd8c8" stroke-width="2.8" stroke-linecap="round" stroke-linejoin="round" points="48,74 48,88"/>
</svg>
